<?xml version="1.0" encoding="UTF-8"?>
<svg id="Layer_2" data-name="Layer 2" xmlns="http://www.w3.org/2000/svg" xmlns:xlink="http://www.w3.org/1999/xlink" viewBox="0 0 3657.77 970.51">
  <defs>
    <style>
      .cls-1 {
        letter-spacing: -.04em;
      }

      .cls-2 {
        letter-spacing: -.03em;
      }

      .cls-3 {
        letter-spacing: -.03em;
      }

      .cls-4 {
        letter-spacing: -.03em;
      }

      .cls-5 {
        letter-spacing: -.03em;
      }

      .cls-6 {
        stroke-linecap: round;
        stroke-width: 15px;
      }

      .cls-6, .cls-7, .cls-8, .cls-9, .cls-10, .cls-11 {
        stroke-miterlimit: 10;
      }

      .cls-6, .cls-8, .cls-11 {
        fill: none;
      }

      .cls-6, .cls-11 {
        stroke: #eb0028;
      }

      .cls-12 {
        letter-spacing: -.04em;
      }

      .cls-13, .cls-7, .cls-9, .cls-10, .cls-14, .cls-15 {
        fill: #fff;
      }

      .cls-7 {
        stroke: url(#linear-gradient-4);
      }

      .cls-7, .cls-9, .cls-10 {
        stroke-width: .7px;
      }

      .cls-16 {
        letter-spacing: -.03em;
      }

      .cls-8 {
        stroke: url(#linear-gradient);
        stroke-width: 6.98px;
      }

      .cls-17 {
        fill: #ff0024;
      }

      .cls-18 {
        letter-spacing: -.03em;
      }

      .cls-19 {
        letter-spacing: -.03em;
      }

      .cls-20 {
        letter-spacing: -.03em;
      }

      .cls-9 {
        stroke: url(#linear-gradient-3);
      }

      .cls-21 {
        letter-spacing: -.06em;
      }

      .cls-22 {
        letter-spacing: -.03em;
      }

      .cls-23 {
        fill: #eb0028;
      }

      .cls-24 {
        letter-spacing: 0em;
      }

      .cls-10 {
        stroke: url(#linear-gradient-2);
      }

      .cls-14 {
        font-family: Inter-Bold, Inter;
        font-size: 213.45px;
        font-variation-settings: 'opsz' 14, 'wght' 700;
        font-weight: 700;
      }

      .cls-25 {
        letter-spacing: -.03em;
      }

      .cls-15 {
        font-family: Inter-Regular, Inter;
        font-size: 281.25px;
        font-variation-settings: 'opsz' 14, 'wght' 400;
      }

      .cls-26 {
        letter-spacing: -.03em;
      }

      .cls-27 {
        letter-spacing: -.04em;
      }

      .cls-28 {
        letter-spacing: -.01em;
      }

      .cls-29 {
        letter-spacing: -.03em;
      }

      .cls-11 {
        stroke-width: 11.87px;
      }

      .cls-30 {
        letter-spacing: -.03em;
      }

      .cls-31 {
        letter-spacing: -.06em;
      }
    </style>
    <linearGradient id="linear-gradient" x1="466.57" y1="0" x2="466.57" y2="839.73" gradientUnits="userSpaceOnUse">
      <stop offset="0" stop-color="#fff"/>
      <stop offset="1" stop-color="#fff"/>
    </linearGradient>
    <linearGradient id="linear-gradient-2" x1="331.71" y1="948.99" x2="605.39" y2="948.99" gradientUnits="userSpaceOnUse">
      <stop offset="0" stop-color="#eb0028"/>
      <stop offset=".09" stop-color="#e30026"/>
      <stop offset=".23" stop-color="#ce0023"/>
      <stop offset=".4" stop-color="#ad001d"/>
      <stop offset=".59" stop-color="#7e0015"/>
      <stop offset=".79" stop-color="#42000b"/>
      <stop offset="1" stop-color="#000"/>
    </linearGradient>
    <linearGradient id="linear-gradient-3" x1="331.53" y1="894.12" x2="605.21" y2="894.12" xlink:href="#linear-gradient-2"/>
    <linearGradient id="linear-gradient-4" x1="331.36" y1="837.64" x2="605.03" y2="837.64" xlink:href="#linear-gradient-2"/>
  </defs>
  <g id="Layer_1-2" data-name="Layer 1">
    <g>
      <g>
        <text class="cls-15" transform="translate(1759.57 476.7)"><tspan class="cls-18" x="0" y="0">C</tspan><tspan class="cls-4" x="197.29" y="0">o</tspan><tspan class="cls-31" x="357.49" y="0">n</tspan><tspan class="cls-21" x="507.57" y="0">v</tspan><tspan class="cls-22" x="650" y="0">e</tspan><tspan class="cls-30" x="805.93" y="0">r</tspan><tspan class="cls-2" x="903.21" y="0">s</tspan><tspan class="cls-16" x="1044.54" y="0">a</tspan><tspan class="cls-3" x="1193.22" y="0">t</tspan><tspan class="cls-26" x="1277.44" y="0">i</tspan><tspan class="cls-5" x="1336.61" y="0">o</tspan><tspan class="cls-12" x="1496.81" y="0">n</tspan><tspan class="cls-24" x="1652.13" y="0">s</tspan></text>
        <path class="cls-17" d="M1090.89,324.5h-57.18v-52.37h177.17v52.37h-57.16v151.95h-62.83v-151.95Z"/>
        <path class="cls-17" d="M1220.64,272.13h171.99v52.37h-109.12v25.46h109.12v48.66h-109.12v25.46h109.15v52.37h-172.02v-204.32Z"/>
        <path class="cls-17" d="M1403.21,272.13h103.17c68,0,92.04,50.37,92.04,101.86,0,62.69-33.15,102.46-104.31,102.46h-90.89v-204.32ZM1466.08,424.09h24.59c39.16,0,44.89-31.78,44.89-50.97,0-12.85-4.02-48.62-49.47-48.62h-20.01v99.59Z"/>
        <path class="cls-17" d="M1688.75,398.22l-19.18-31.84-18.7,31.84h-46.06l43.73-64.39-42.11-61.59h46.08l17.06,30.44,17.55-30.44h46.06l-42.09,61.59,43.73,64.39h-46.07Z"/>
      </g>
      <rect class="cls-23" x="1800.58" y="602.77" width="1090.32" height="253.07" rx="126.53" ry="126.53"/>
      <text class="cls-14" transform="translate(1884.88 800.04)"><tspan class="cls-29" x="0" y="0">S</tspan><tspan class="cls-20" x="133.19" y="0">e</tspan><tspan class="cls-27" x="253.85" y="0">a</tspan><tspan class="cls-19" x="369.57" y="0">s</tspan><tspan class="cls-25" x="481.84" y="0">o</tspan><tspan class="cls-28" x="606.33" y="0">n</tspan><tspan class="cls-1" x="737.08" y="0"> </tspan><tspan class="cls-28" x="778.23" y="0">2</tspan></text>
      <g>
        <rect class="cls-23" x="326.22" y="307.17" width="280.69" height="299.64" rx="97.76" ry="97.76"/>
        <g>
          <path class="cls-13" d="M417.8,399.61c.64,0,2.2-1.17,3.11-3.98l23.06-71.63c3.64-11.3,12.62-17.89,22.85-16.8,8.99.96,18.71,8.51,20.16,23.21l.09.93-.09.93-25.69,251.11c.6,4,2.43,5.62,3.51,5.68,1.13.07,2.63-1.63,3.39-5l.26-.92,52.81-157.86c2.64-10.91,10.81-18.53,20.48-19.02h.43s64.76-.26,64.76-.26v-61.62c0-77.19-63.15-140.34-140.34-140.34h0c-77.19,0-140.34,63.15-140.34,140.34v55.22h91.58Z"/>
          <path class="cls-13" d="M511.39,705.02c55.39-18.81,95.52-71.42,95.52-132.96v-147.42l-64.34.25c-.81.15-2.53,1.7-3.26,4.98l-.26.92-52.82,157.86c-3.18,13.28-12.81,19.05-21.42,19.05-.39,0-.78-.01-1.16-.04-11.09-.68-19.74-10.25-21.02-23.28l-.09-.93,4.7-45.92,21.09-206.12c-.57-3.72-2.34-5.57-3.5-5.69-.93-.08-2.25,1.24-3.13,3.98l-23.06,71.63c-3.31,10.27-11.49,16.9-20.84,16.9h-91.58v153.82c0,61.53,40.14,114.15,95.52,132.96,14.05,4.77,23.66,17.74,23.66,32.58v50.08c0,18.93-15.35,34.28-34.28,34.28h-48.59c-12.67,0-23.99,8.93-25.94,21.45-2.46,15.78,9.83,29.51,25.17,29.51h213.68c12.67,0,23.99-8.93,25.94-21.45,2.46-15.78-9.83-29.51-25.17-29.51h-54.19c-18.93,0-34.28-15.35-34.28-34.28v-50.08c0-14.84,9.61-27.81,23.66-32.58Z"/>
        </g>
        <g>
          <path d="M525.82,352.84c-4.33,0-7.85-3.51-7.85-7.85,0-29.21-23.76-52.97-52.97-52.97s-52.97,23.76-52.97,52.97c0,4.33-3.51,7.85-7.85,7.85s-7.85-3.51-7.85-7.85c0-37.86,30.8-68.66,68.66-68.66s68.66,30.8,68.66,68.66c0,4.33-3.51,7.85-7.85,7.85Z"/>
          <path d="M553.89,352.84c-4.33,0-7.85-3.51-7.85-7.85,0-44.68-36.35-81.04-81.04-81.04s-81.04,36.35-81.04,81.04c0,4.33-3.51,7.85-7.85,7.85s-7.85-3.51-7.85-7.85c0-53.34,43.39-96.73,96.73-96.73s96.73,43.39,96.73,96.73c0,4.33-3.51,7.85-7.85,7.85Z"/>
          <path d="M581.96,352.84c-4.33,0-7.85-3.51-7.85-7.85,0-60.16-48.94-109.11-109.1-109.11s-109.11,48.95-109.11,109.11c0,4.33-3.51,7.85-7.85,7.85s-7.85-3.51-7.85-7.85c0-68.82,55.99-124.8,124.8-124.8s124.8,55.99,124.8,124.8c0,4.33-3.51,7.85-7.85,7.85Z"/>
        </g>
        <path d="M401.74,514.36c0-6.8-4.93-12.36-10.96-12.36h-64.55v24.72h64.55c6.03,0,10.96-5.56,10.96-12.36Z"/>
        <path d="M401.74,575.29c0-6.8-4.93-12.36-10.96-12.36h-64.55v10.01c0,4.98.3,9.88.81,14.71h63.74c6.03,0,10.96-5.56,10.96-12.36Z"/>
        <path class="cls-8" d="M721.66,556.38c50.23-58.84,80.52-135.19,80.25-218.62C801.31,152.55,650.69,2.9,465.49,3.49c-185.2.59-334.86,151.22-334.26,336.42.27,83.43,31.05,159.59,81.66,218.1h-.02c148.29,183.6,132.09,278.21,132.09,278.21l123.21-.4,123.22-.4s-16.81-94.5,130.3-279.04h-.02Z"/>
        <polygon points="604.24 962.18 603.79 835.43 331.88 836.23 332.33 962.18 604.24 962.18"/>
        <path class="cls-10" d="M584.31,969.42l-231.39.74c-11.48.04-20.82-9.24-20.86-20.73h0c-.04-11.48,9.24-20.83,20.73-20.86l231.39-.74c11.48-.04,20.82,9.24,20.86,20.73h0c.04,11.48-9.24,20.82-20.73,20.86Z"/>
        <path class="cls-9" d="M584.13,914.54l-231.39.75c-11.48.04-20.82-9.24-20.86-20.73h0c-.04-11.49,9.24-20.83,20.73-20.86l231.39-.74c11.49-.04,20.82,9.24,20.86,20.73h0c.04,11.48-9.24,20.82-20.73,20.86Z"/>
        <g>
          <line class="cls-11" x1="384.53" y1="845.45" x2="247.87" y2="408.4"/>
          <path class="cls-23" d="M265.17,403.93c-2.94-9.41-12.96-14.65-22.36-11.71-9.41,2.94-14.65,12.96-11.71,22.36,2.94,9.41,12.96,14.65,22.36,11.71,9.41-2.94,14.65-12.96,11.71-22.36Z"/>
        </g>
        <g>
          <line class="cls-11" x1="551.81" y1="845.41" x2="683.85" y2="414.03"/>
          <path class="cls-23" d="M700.66,420.1c2.88-9.43-2.42-19.41-11.84-22.29-9.43-2.89-19.41,2.42-22.29,11.84-2.88,9.43,2.42,19.41,11.84,22.29,9.43,2.89,19.41-2.42,22.29-11.84Z"/>
        </g>
        <path class="cls-7" d="M583.95,858.07l-231.39.74c-11.49.04-20.83-9.24-20.86-20.73h0c-.04-11.49,9.24-20.83,20.73-20.86l231.39-.74c11.49-.04,20.83,9.24,20.86,20.73h0c.04,11.48-9.24,20.82-20.73,20.86Z"/>
        <line class="cls-6" x1="828.84" y1="324.26" x2="925.64" y2="324.26"/>
        <line class="cls-6" x1="818.09" y1="230.29" x2="911.59" y2="205.24"/>
        <line class="cls-6" x1="783.37" y1="142.3" x2="867.21" y2="93.9"/>
        <line class="cls-6" x1="818.09" y1="418.23" x2="911.59" y2="443.29"/>
        <line class="cls-6" x1="104.3" y1="324.26" x2="7.5" y2="324.26"/>
        <line class="cls-6" x1="115.05" y1="230.29" x2="21.55" y2="205.24"/>
        <line class="cls-6" x1="149.76" y1="142.3" x2="65.93" y2="93.9"/>
        <line class="cls-6" x1="115.05" y1="418.23" x2="21.55" y2="443.29"/>
        <rect class="cls-23" x="235.89" y="400.41" width="96.19" height="17.03" rx="5.54" ry="5.54"/>
        <rect class="cls-23" x="581.17" y="406.73" width="107.1" height="17.03" rx="5.54" ry="5.54"/>
      </g>
    </g>
  </g>
</svg>