<?xml version="1.0" encoding="UTF-8"?>
<svg xmlns="http://www.w3.org/2000/svg" xmlns:xlink="http://www.w3.org/1999/xlink" viewBox="0 0 1388.63 980.34">
  <defs>
    <style>
      .cls-1 {
        letter-spacing: -.03em;
      }

      .cls-2 {
        fill: #ea2030;
      }

      .cls-3 {
        letter-spacing: -.05em;
      }

      .cls-4 {
        font-size: 148.84px;
      }

      .cls-4, .cls-5 {
        fill: #fff;
        font-family: Inter-Regular, Inter;
        font-variation-settings: 'opsz' 14, 'wght' 400;
      }

      .cls-6 {
        letter-spacing: -.06em;
      }

      .cls-7 {
        letter-spacing: -.03em;
      }

      .cls-8 {
        letter-spacing: -.03em;
      }

      .cls-9 {
        opacity: .46;
      }

      .cls-9, .cls-10, .cls-11 {
        mix-blend-mode: overlay;
      }

      .cls-9, .cls-11 {
        fill: #f3fafd;
      }

      .cls-12 {
        fill: url(#linear-gradient-10);
      }

      .cls-13 {
        letter-spacing: -.03em;
      }

      .cls-14 {
        fill: url(#linear-gradient-7);
      }

      .cls-14, .cls-15, .cls-16 {
        mix-blend-mode: color-burn;
      }

      .cls-17 {
        letter-spacing: -.03em;
      }

      .cls-18 {
        letter-spacing: -.03em;
      }

      .cls-15 {
        fill: url(#Degradado_sin_nombre_5);
      }

      .cls-19 {
        letter-spacing: -.03em;
      }

      .cls-20 {
        letter-spacing: -.04em;
      }

      .cls-21 {
        fill: url(#linear-gradient-5);
      }

      .cls-16 {
        fill: url(#linear-gradient-6);
        opacity: .5;
      }

      .cls-22 {
        letter-spacing: -.04em;
      }

      .cls-23 {
        letter-spacing: -.03em;
      }

      .cls-24 {
        letter-spacing: -.03em;
      }

      .cls-10 {
        fill: #e8f3f1;
        opacity: .51;
      }

      .cls-25 {
        isolation: isolate;
      }

      .cls-26 {
        letter-spacing: -.03em;
      }

      .cls-27 {
        fill: url(#linear-gradient-8);
      }

      .cls-28 {
        letter-spacing: -.01em;
      }

      .cls-29 {
        stroke: url(#linear-gradient-2);
      }

      .cls-29, .cls-30, .cls-31, .cls-32 {
        fill: none;
        stroke-linecap: round;
      }

      .cls-29, .cls-31, .cls-32 {
        stroke-linejoin: round;
      }

      .cls-29, .cls-32 {
        stroke-width: 46px;
      }

      .cls-30 {
        stroke: #fff;
        stroke-miterlimit: 10;
        stroke-width: 29px;
      }

      .cls-33 {
        letter-spacing: -.06em;
      }

      .cls-34 {
        fill: url(#linear-gradient-9);
      }

      .cls-35 {
        fill: url(#linear-gradient-11);
      }

      .cls-31 {
        stroke: url(#linear-gradient-4);
        stroke-width: 49px;
      }

      .cls-32 {
        stroke: url(#linear-gradient-3);
      }

      .cls-11 {
        opacity: .59;
      }

      .cls-36 {
        letter-spacing: 0em;
      }

      .cls-37 {
        letter-spacing: -.03em;
      }

      .cls-38 {
        fill: url(#linear-gradient);
      }

      .cls-39 {
        letter-spacing: 0em;
      }

      .cls-40 {
        letter-spacing: -.03em;
      }

      .cls-5 {
        font-size: 107.68px;
      }
    </style>
    <linearGradient id="linear-gradient" x1="419.28" y1="909.95" x2="969.35" y2="909.95" gradientUnits="userSpaceOnUse">
      <stop offset="0" stop-color="#e71f2d"/>
      <stop offset="1" stop-color="#683893"/>
    </linearGradient>
    <linearGradient id="linear-gradient-2" x1="416.45" y1="-13928.8" x2="972.18" y2="-13928.8" gradientTransform="translate(0 -13654.36) scale(1 -1)" gradientUnits="userSpaceOnUse">
      <stop offset="0" stop-color="#e71f2d"/>
      <stop offset="1" stop-color="#683893"/>
    </linearGradient>
    <linearGradient id="linear-gradient-3" x1="628.21" y1="-14139.9" x2="760.01" y2="-14271.7" gradientTransform="translate(0 -13654.36) scale(1 -1)" gradientUnits="userSpaceOnUse">
      <stop offset="0" stop-color="#e71f2d"/>
      <stop offset="1" stop-color="#683893"/>
    </linearGradient>
    <linearGradient id="linear-gradient-4" x1="507.97" y1="-14044.27" x2="880.25" y2="-14044.27" gradientTransform="translate(0 -13654.36) scale(1 -1)" gradientUnits="userSpaceOnUse">
      <stop offset="0" stop-color="#683893"/>
      <stop offset="1" stop-color="#e71f2d"/>
    </linearGradient>
    <linearGradient id="linear-gradient-5" x1="597.95" y1="-13812.92" x2="790.28" y2="-14005.25" gradientTransform="translate(0 -13654.36) scale(1 -1)" gradientUnits="userSpaceOnUse">
      <stop offset="0" stop-color="#e71f2d"/>
      <stop offset="1" stop-color="#683893"/>
    </linearGradient>
    <linearGradient id="linear-gradient-6" x1="603.05" y1="-13813.31" x2="756.91" y2="-13967.17" xlink:href="#linear-gradient-5"/>
    <linearGradient id="linear-gradient-7" x1="577.75" y1="-14041.1" x2="810.88" y2="-14041.1" xlink:href="#linear-gradient-5"/>
    <linearGradient id="Degradado_sin_nombre_5" data-name="Degradado sin nombre 5" x1="640.53" y1="-13940.43" x2="747.69" y2="-14047.59" gradientTransform="translate(0 -13654.36) scale(1 -1)" gradientUnits="userSpaceOnUse">
      <stop offset="0" stop-color="#3e59a6"/>
      <stop offset="1" stop-color="#65c09b"/>
    </linearGradient>
    <linearGradient id="linear-gradient-8" x1="1020.01" y1="83.2" x2="1020.01" y2="396.11" gradientUnits="userSpaceOnUse">
      <stop offset="0" stop-color="#e71f2d"/>
      <stop offset=".1" stop-color="#d72139"/>
      <stop offset=".52" stop-color="#9b2d69"/>
      <stop offset=".84" stop-color="#763587"/>
      <stop offset="1" stop-color="#683893"/>
    </linearGradient>
    <linearGradient id="linear-gradient-9" x1="1138.62" y1="58.6" x2="1138.62" y2="419.38" xlink:href="#linear-gradient"/>
    <linearGradient id="linear-gradient-10" x1="-5751.54" x2="-5751.54" gradientTransform="translate(-5382.91) rotate(-180) scale(1 -1)" xlink:href="#linear-gradient-8"/>
    <linearGradient id="linear-gradient-11" x1="-5632.93" y1="58.6" x2="-5632.93" y2="419.38" gradientTransform="translate(-5382.91) rotate(-180) scale(1 -1)" xlink:href="#linear-gradient"/>
  </defs>
  <g class="cls-25">
    <g id="Layer_2" data-name="Layer 2">
      <g id="Layer_1-2" data-name="Layer 1">
        <g>
          <g>
            <g>
              <text class="cls-4" transform="translate(384.12 780.05)"><tspan class="cls-37" x="0" y="0">C</tspan><tspan class="cls-17" x="104.4" y="0">o</tspan><tspan class="cls-6" x="189.18" y="0">n</tspan><tspan class="cls-33" x="268.6" y="0">v</tspan><tspan class="cls-7" x="343.97" y="0">e</tspan><tspan class="cls-19" x="426.49" y="0">r</tspan><tspan class="cls-26" x="477.97" y="0">s</tspan><tspan class="cls-1" x="552.76" y="0">a</tspan><tspan class="cls-18" x="631.44" y="0">t</tspan><tspan class="cls-40" x="676.01" y="0">i</tspan><tspan class="cls-17" x="707.32" y="0">o</tspan><tspan class="cls-20" x="792.1" y="0">n</tspan><tspan class="cls-39" x="874.29" y="0">s</tspan></text>
              <path class="cls-2" d="M30.26,699.51H0v-27.71h93.76v27.71h-30.25v80.41H30.26v-80.41Z"/>
              <path class="cls-2" d="M98.93,671.8h91.02v27.71h-57.75v13.47h57.75v25.75h-57.75v13.47h57.76v27.71h-91.03v-108.13Z"/>
              <path class="cls-2" d="M195.54,671.8h54.59c35.99,0,48.71,26.65,48.71,53.9,0,33.17-17.54,54.22-55.2,54.22h-48.1v-108.13ZM228.81,752.22h13.01c20.72,0,23.75-16.82,23.75-26.97,0-6.8-2.13-25.73-26.18-25.73h-10.59v52.7Z"/>
              <path class="cls-2" d="M346.64,738.53l-10.15-16.85-9.9,16.85h-24.38l23.14-34.07-22.28-32.59h24.38l9.03,16.11,9.29-16.11h24.38l-22.28,32.59,23.14,34.07h-24.38Z"/>
            </g>
            <g>
              <rect class="cls-38" x="419.28" y="846.11" width="550.07" height="127.67" rx="63.84" ry="63.84"/>
              <text class="cls-5" transform="translate(461.81 945.63)"><tspan class="cls-23" x="0" y="0">S</tspan><tspan class="cls-13" x="65.77" y="0">e</tspan><tspan class="cls-22" x="125.28" y="0">a</tspan><tspan class="cls-8" x="181.61" y="0">s</tspan><tspan class="cls-24" x="234.78" y="0">o</tspan><tspan class="cls-28" x="296.12" y="0">n</tspan><tspan class="cls-3" x="358.66" y="0"> </tspan><tspan class="cls-36" x="383.49" y="0">3</tspan></text>
            </g>
          </g>
          <g>
            <path class="cls-29" d="M756.51,525.08c110.7-27.76,192.68-127.91,192.68-247.21,0-140.76-114.11-254.87-254.87-254.87s-254.87,114.11-254.87,254.87c0,120.45,83.56,221.37,195.86,247.99h0"/>
            <polyline class="cls-32" points="633.51 525.88 694.11 650.7 694.11 452.16"/>
            <path class="cls-31" d="M855.75,327.65h-37.13c0,68.77-55.75,124.51-124.51,124.51h0c-68.77,0-124.51-55.75-124.51-124.51h-37.13"/>
            <g>
              <path class="cls-21" d="M694.11,412.12c-46.58,0-84.47-37.89-84.47-84.47v-145.86c0-46.58,37.89-84.47,84.47-84.47s84.47,37.89,84.47,84.47v145.86c0,46.58-37.89,84.47-84.47,84.47Z"/>
              <path class="cls-16" d="M679.98,361.8c-37.26,0-67.58-30.32-67.58-67.58v-116.69c0-37.26,30.32-67.58,67.58-67.58s67.58,30.32,67.58,67.58v116.69c0,37.26-30.32,67.58-67.58,67.58Z"/>
            </g>
            <g>
              <g>
                <line class="cls-30" x1="735.38" y1="180.08" x2="791.82" y2="180.08"/>
                <line class="cls-30" x1="735.38" y1="231.01" x2="791.82" y2="231.01"/>
                <line class="cls-30" x1="735.38" y1="281.95" x2="791.82" y2="281.95"/>
                <line class="cls-30" x1="735.38" y1="332.88" x2="791.82" y2="332.88"/>
              </g>
              <g>
                <line class="cls-30" x1="596.81" y1="180.08" x2="653.25" y2="180.08"/>
                <line class="cls-30" x1="596.81" y1="231.01" x2="653.25" y2="231.01"/>
                <line class="cls-30" x1="596.81" y1="281.95" x2="653.25" y2="281.95"/>
                <line class="cls-30" x1="596.81" y1="332.88" x2="653.25" y2="332.88"/>
              </g>
            </g>
            <path class="cls-14" d="M694.32,443.9c64.27,0,116.56-45.83,116.56-102.16v-12.16c-.29,1.16-.45,2.36-.45,3.6,0,56.12-52.09,101.77-116.11,101.77s-116.11-45.65-116.11-101.77c0-1.24-.16-2.44-.45-3.6v12.16c0,56.33,52.29,102.16,116.56,102.16Z"/>
            <path class="cls-15" d="M694.11,411.8c46.66,0,84.62-37.96,84.62-84.62v-10.07c-.21.96-.33,1.96-.33,2.98,0,46.48-37.81,84.29-84.29,84.29s-84.29-37.81-84.29-84.29c0-1.02-.12-2.02-.33-2.98v10.07c0,46.66,37.96,84.62,84.62,84.62Z"/>
          </g>
          <g>
            <g>
              <g>
                <path class="cls-27" d="M984,488.22c-4.23,0-8.4-2.71-11.08-7.81-4.46-8.48-3.11-20.36,3-26.54,31.56-31.91,53.72-78.38,62.39-130.85,9.09-54.98,2.61-114.35-17.78-162.88-11.14-26.52-26.5-50.15-44.41-68.33-6.11-6.2-7.43-18.08-2.97-26.55,4.47-8.46,13.04-10.31,19.14-4.11,20.93,21.24,38.88,48.86,51.91,79.86,23.85,56.78,31.44,126.21,20.81,190.5-10.15,61.4-36.06,115.76-72.96,153.06-2.43,2.46-5.26,3.65-8.06,3.65Z"/>
                <path class="cls-10" d="M984,482.79c-3.12,0-6.08-2.09-7.92-5.58-1.54-2.93-2.16-6.51-1.76-10.09.4-3.58,1.79-6.73,3.9-8.86,32.32-32.68,55.02-80.28,63.9-134.03,9.31-56.31,2.67-117.12-18.21-166.82-11.41-27.16-27.14-51.35-45.48-69.97-4.35-4.42-5.3-12.93-2.12-18.97,1.84-3.48,4.79-5.56,7.91-5.56,2.08,0,4.08.91,5.76,2.62,20.5,20.81,38.08,47.85,50.84,78.21,23.36,55.6,30.78,123.59,20.38,186.55-9.94,60.13-35.31,113.36-71.45,149.89-1.69,1.71-3.68,2.61-5.75,2.61Z"/>
                <path class="cls-9" d="M979.19,468.75c34.76-34.62,59.16-85.05,68.71-141.99,10.01-59.66,2.87-124.08-19.58-176.74-12.27-28.77-29.18-54.4-48.9-74.13-.35-.35-.66-.73-.93-1.15-.47,3.05.33,6.34,2.26,8.3,18.78,19.06,34.88,43.82,46.55,71.62,21.38,50.88,28.17,113.13,18.64,170.77-9.1,55.02-32.33,103.75-65.41,137.2-1.27,1.28-2.1,3.17-2.34,5.32-.08.71-.07,1.41-.02,2.1.3-.48.64-.92,1.02-1.31Z"/>
              </g>
              <g>
                <path class="cls-34" d="M1130.36,406.95c-2.6,0-5.24-.78-7.72-2.41-8.34-5.51-11.64-18.71-7.37-29.48,26.66-67.21,11.05-148.58-.62-191.1-3.13-11.4,1.49-23.92,10.33-27.96,8.83-4.05,18.53,1.93,21.66,13.33,23.31,84.89,22.9,165.05-1.16,225.7-3,7.57-8.95,11.93-15.12,11.93Z"/>
                <path class="cls-10" d="M1130.36,400.69c-1.92,0-3.78-.58-5.51-1.72-5.95-3.93-8.31-13.38-5.27-21.06,27.49-69.3,11.57-152.57-.37-196.04-1.08-3.94-.91-8.19.48-11.96,1.39-3.77,3.84-6.62,6.89-8.02,1.32-.6,2.68-.91,4.05-.91,5.12,0,9.71,4.19,11.42,10.43,22.86,83.26,22.54,161.66-.9,220.76-2.08,5.26-6.23,8.52-10.8,8.52Z"/>
                <path class="cls-11" d="M1127.04,174.27c-.47-1.87-.51-3.84-.13-5.7-1.23.94-2.21,2.32-2.84,4.03-.84,2.26-.94,4.81-.29,7.18,12.2,44.41,28.43,129.59.11,200.98-.88,2.23-1.04,4.77-.44,7.16.02.09.06.18.09.27.15-.86.35-1.71.67-2.51,29.99-74.42,14.64-164.4,2.82-211.41Z"/>
              </g>
            </g>
            <g>
              <g>
                <path class="cls-12" d="M404.63,488.22c4.23,0,8.4-2.71,11.08-7.81,4.46-8.48,3.11-20.36-3-26.54-31.56-31.91-53.72-78.38-62.39-130.85-9.09-54.98-2.61-114.35,17.78-162.88,11.14-26.52,26.5-50.15,44.41-68.33,6.11-6.2,7.43-18.08,2.97-26.55-4.47-8.46-13.04-10.31-19.14-4.11-20.93,21.24-38.88,48.86-51.91,79.86-23.85,56.78-31.44,126.21-20.81,190.5,10.15,61.4,36.06,115.76,72.96,153.06,2.43,2.46,5.26,3.65,8.06,3.65Z"/>
                <path class="cls-10" d="M404.63,482.79c3.12,0,6.08-2.09,7.92-5.58,1.54-2.93,2.16-6.51,1.76-10.09-.4-3.58-1.79-6.73-3.9-8.86-32.32-32.68-55.02-80.28-63.9-134.03-9.31-56.31-2.67-117.12,18.21-166.82,11.41-27.16,27.14-51.35,45.48-69.97,4.35-4.42,5.3-12.93,2.12-18.97-1.84-3.48-4.79-5.56-7.91-5.56-2.08,0-4.08.91-5.76,2.62-20.5,20.81-38.08,47.85-50.84,78.21-23.36,55.6-30.78,123.59-20.38,186.55,9.94,60.13,35.31,113.36,71.45,149.89,1.69,1.71,3.68,2.61,5.75,2.61Z"/>
                <path class="cls-9" d="M409.44,468.75c-34.76-34.62-59.16-85.05-68.71-141.99-10.01-59.66-2.87-124.08,19.58-176.74,12.27-28.77,29.18-54.4,48.9-74.13.35-.35.66-.73.93-1.15.47,3.05-.33,6.34-2.26,8.3-18.78,19.06-34.88,43.82-46.55,71.62-21.38,50.88-28.17,113.13-18.64,170.77,9.1,55.02,32.33,103.75,65.41,137.2,1.27,1.28,2.1,3.17,2.34,5.32.08.71.07,1.41.02,2.1-.3-.48-.64-.92-1.02-1.31Z"/>
              </g>
              <g>
                <path class="cls-35" d="M258.27,406.95c2.6,0,5.24-.78,7.72-2.41,8.34-5.51,11.64-18.71,7.37-29.48-26.66-67.21-11.05-148.58.62-191.1,3.13-11.4-1.49-23.92-10.33-27.96-8.83-4.05-18.53,1.93-21.66,13.33-23.31,84.89-22.9,165.05,1.16,225.7,3,7.57,8.95,11.93,15.12,11.93Z"/>
                <path class="cls-10" d="M258.27,400.69c1.92,0,3.78-.58,5.51-1.72,5.95-3.93,8.31-13.38,5.27-21.06-27.49-69.3-11.57-152.57.37-196.04,1.08-3.94.91-8.19-.48-11.96-1.39-3.77-3.84-6.62-6.89-8.02-1.32-.6-2.68-.91-4.05-.91-5.12,0-9.71,4.19-11.42,10.43-22.86,83.26-22.54,161.66.9,220.76,2.08,5.26,6.23,8.52,10.8,8.52Z"/>
                <path class="cls-11" d="M261.59,174.27c.47-1.87.51-3.84.13-5.7,1.23.94,2.21,2.32,2.84,4.03.84,2.26.94,4.81.29,7.18-12.2,44.41-28.43,129.59-.11,200.98.88,2.23,1.04,4.77.44,7.16-.02.09-.06.18-.09.27-.15-.86-.35-1.71-.67-2.51-29.99-74.42-14.64-164.4-2.82-211.41Z"/>
              </g>
            </g>
          </g>
        </g>
      </g>
    </g>
  </g>
</svg>