<?xml version="1.0" encoding="UTF-8"?>
<svg id="Layer_2" data-name="Layer 2" xmlns="http://www.w3.org/2000/svg" xmlns:xlink="http://www.w3.org/1999/xlink" viewBox="0 0 686.91 714.42">
  <defs>
    <style>
      .cls-1 {
        stroke: url(#linear-gradient-3);
      }

      .cls-1, .cls-2, .cls-3, .cls-4 {
        fill: #fff;
      }

      .cls-1, .cls-3, .cls-4 {
        stroke-width: .51px;
      }

      .cls-1, .cls-3, .cls-4, .cls-5, .cls-6, .cls-7 {
        stroke-miterlimit: 10;
      }

      .cls-3 {
        stroke: url(#linear-gradient-2);
      }

      .cls-4 {
        stroke: url(#linear-gradient-4);
      }

      .cls-5 {
        stroke-linecap: round;
        stroke-width: 11.04px;
      }

      .cls-5, .cls-6 {
        stroke: #eb0028;
      }

      .cls-5, .cls-6, .cls-7 {
        fill: none;
      }

      .cls-8 {
        fill: #eb0028;
      }

      .cls-6 {
        stroke-width: 8.74px;
      }

      .cls-7 {
        stroke: url(#linear-gradient);
        stroke-width: 5.14px;
      }
    </style>
    <linearGradient id="linear-gradient" x1="343.45" y1="0" x2="343.45" y2="618.15" gradientUnits="userSpaceOnUse">
      <stop offset="0" stop-color="#fff"/>
      <stop offset="1" stop-color="#fff"/>
    </linearGradient>
    <linearGradient id="linear-gradient-2" x1="244.18" y1="698.58" x2="445.64" y2="698.58" gradientUnits="userSpaceOnUse">
      <stop offset="0" stop-color="#eb0028"/>
      <stop offset=".09" stop-color="#e30026"/>
      <stop offset=".23" stop-color="#ce0023"/>
      <stop offset=".4" stop-color="#ad001d"/>
      <stop offset=".59" stop-color="#7e0015"/>
      <stop offset=".79" stop-color="#42000b"/>
      <stop offset="1" stop-color="#000"/>
    </linearGradient>
    <linearGradient id="linear-gradient-3" x1="244.05" y1="658.18" x2="445.51" y2="658.18" xlink:href="#linear-gradient-2"/>
    <linearGradient id="linear-gradient-4" x1="243.92" y1="616.61" x2="445.38" y2="616.61" xlink:href="#linear-gradient-2"/>
  </defs>
  <g id="Layer_1-2" data-name="Layer 1">
    <g>
      <rect class="cls-8" x="240.14" y="226.12" width="206.62" height="220.57" rx="83.26" ry="83.26"/>
      <g>
        <path class="cls-2" d="M307.55,294.16c.47,0,1.62-.86,2.29-2.93l16.97-52.73c2.68-8.32,9.29-13.17,16.82-12.37,6.62.71,13.77,6.26,14.84,17.08l.07.69-.07.69-18.91,184.85c.44,2.95,1.79,4.13,2.59,4.18.83.05,1.94-1.2,2.5-3.68l.19-.68,38.88-116.2c1.94-8.03,7.96-13.64,15.07-14h.32s47.67-.19,47.67-.19v-45.36c0-56.82-46.49-103.31-103.31-103.31h0c-56.82,0-103.31,46.49-103.31,103.31v40.65h67.41Z"/>
        <path class="cls-2" d="M376.45,518.98c40.77-13.85,70.32-52.58,70.32-97.87v-108.52l-47.36.18c-.59.11-1.86,1.25-2.4,3.67l-.19.68-38.88,116.2c-2.34,9.78-9.43,14.02-15.77,14.03-.29,0-.57,0-.86-.03-8.16-.5-14.53-7.54-15.48-17.13l-.07-.69,3.46-33.8,15.52-151.73c-.42-2.74-1.72-4.1-2.57-4.19-.69-.06-1.66.91-2.3,2.93l-16.97,52.73c-2.43,7.56-8.46,12.44-15.34,12.44h-67.41v113.23c0,45.3,29.54,84.03,70.32,97.87,10.34,3.51,17.41,13.06,17.41,23.98v36.86c0,13.94-11.3,25.24-25.24,25.24h-35.77c-9.33,0-17.66,6.57-19.09,15.79-1.81,11.61,7.23,21.73,18.53,21.73h157.3c9.33,0,17.66-6.57,19.09-15.79,1.81-11.61-7.23-21.73-18.53-21.73h-39.89c-13.94,0-25.24-11.3-25.24-25.24v-36.86c0-10.92,7.07-20.47,17.41-23.98Z"/>
      </g>
      <g>
        <path d="M387.07,259.73c-3.19,0-5.78-2.59-5.78-5.78,0-21.5-17.49-38.99-38.99-38.99s-38.99,17.49-38.99,38.99c0,3.19-2.59,5.78-5.78,5.78s-5.78-2.59-5.78-5.78c0-27.87,22.67-50.54,50.54-50.54s50.55,22.67,50.55,50.54c0,3.19-2.59,5.78-5.78,5.78Z"/>
        <path d="M407.74,259.73c-3.19,0-5.78-2.59-5.78-5.78,0-32.89-26.76-59.65-59.65-59.65s-59.65,26.76-59.65,59.65c0,3.19-2.59,5.78-5.78,5.78s-5.78-2.59-5.78-5.78c0-39.26,31.94-71.21,71.21-71.21s71.21,31.94,71.21,71.21c0,3.19-2.59,5.78-5.78,5.78Z"/>
        <path d="M428.4,259.73c-3.19,0-5.78-2.59-5.78-5.78,0-44.29-36.03-80.32-80.31-80.32s-80.32,36.03-80.32,80.32c0,3.19-2.59,5.78-5.78,5.78s-5.78-2.59-5.78-5.78c0-50.66,41.21-91.87,91.87-91.87s91.87,41.21,91.87,91.87c0,3.19-2.59,5.78-5.78,5.78Z"/>
      </g>
      <path d="M295.73,378.63c0-5.01-3.63-9.1-8.07-9.1h-47.52v18.2h47.52c4.44,0,8.07-4.1,8.07-9.1Z"/>
      <path d="M295.73,423.48c0-5.01-3.63-9.1-8.07-9.1h-47.52v7.37c0,3.67.22,7.28.6,10.83h46.92c4.44,0,8.07-4.1,8.07-9.1Z"/>
      <path class="cls-7" d="M531.23,409.56c36.97-43.31,59.27-99.52,59.07-160.93-.44-136.33-111.31-246.5-247.65-246.06-136.33.44-246.5,111.31-246.06,247.65.2,61.42,22.86,117.47,60.11,160.55h-.01c109.16,135.16,97.23,204.8,97.23,204.8l90.7-.29,90.7-.29s-12.38-69.56,95.91-205.41h-.01Z"/>
      <polygon points="444.8 708.28 444.46 614.98 244.31 615.57 244.64 708.28 444.8 708.28"/>
      <path class="cls-3" d="M430.12,713.61l-170.33.55c-8.45.03-15.33-6.8-15.36-15.26h0c-.03-8.45,6.81-15.33,15.26-15.36l170.33-.55c8.45-.03,15.33,6.8,15.36,15.26h0c.03,8.45-6.8,15.33-15.26,15.36Z"/>
      <path class="cls-1" d="M429.99,673.22l-170.33.55c-8.45.03-15.33-6.8-15.36-15.26h0c-.03-8.45,6.8-15.33,15.26-15.36l170.33-.55c8.45-.03,15.33,6.8,15.36,15.26h0c.03,8.45-6.8,15.33-15.26,15.36Z"/>
      <g>
        <line class="cls-6" x1="283.06" y1="622.36" x2="182.46" y2="300.63"/>
        <path class="cls-8" d="M195.2,297.34c-2.17-6.93-9.54-10.79-16.46-8.62-6.93,2.17-10.79,9.54-8.62,16.46,2.17,6.93,9.54,10.79,16.46,8.62,6.93-2.17,10.79-9.54,8.62-16.46Z"/>
      </g>
      <g>
        <line class="cls-6" x1="406.2" y1="622.33" x2="503.4" y2="304.78"/>
        <path class="cls-8" d="M515.77,309.25c2.12-6.94-1.78-14.29-8.72-16.41-6.94-2.12-14.29,1.78-16.41,8.72-2.12,6.94,1.78,14.29,8.72,16.41,6.94,2.12,14.29-1.78,16.41-8.72Z"/>
      </g>
      <path class="cls-4" d="M429.86,631.65l-170.33.55c-8.45.03-15.33-6.8-15.36-15.26h0c-.03-8.46,6.8-15.33,15.26-15.36l170.33-.55c8.46-.03,15.33,6.81,15.36,15.26h0c.03,8.45-6.8,15.33-15.26,15.36Z"/>
      <line class="cls-5" x1="610.13" y1="238.7" x2="681.39" y2="238.7"/>
      <line class="cls-5" x1="602.21" y1="169.52" x2="671.04" y2="151.08"/>
      <line class="cls-5" x1="576.66" y1="104.75" x2="638.37" y2="69.12"/>
      <line class="cls-5" x1="602.21" y1="307.87" x2="671.04" y2="326.31"/>
      <line class="cls-5" x1="76.77" y1="238.7" x2="5.52" y2="238.7"/>
      <line class="cls-5" x1="84.69" y1="169.52" x2="15.86" y2="151.08"/>
      <line class="cls-5" x1="110.24" y1="104.75" x2="48.53" y2="69.12"/>
      <line class="cls-5" x1="84.69" y1="307.87" x2="15.86" y2="326.31"/>
      <rect class="cls-8" x="173.65" y="294.75" width="70.81" height="12.54" rx="5.05" ry="5.05"/>
      <rect class="cls-8" x="427.81" y="299.41" width="78.84" height="12.54" rx="5.05" ry="5.05"/>
    </g>
  </g>
</svg>